<svg width="25" height="26" viewBox="0 0 25 26" fill="none" xmlns="http://www.w3.org/2000/svg">
<path d="M13.1719 1.1875L16.1719 3.4375C16.3594 3.57812 16.5 3.76562 16.5 4C16.5 4.23438 16.3594 4.46875 16.1719 4.60938L13.1719 6.85938C12.8438 7.14062 12.375 7.04688 12.1406 6.71875C11.8594 6.39062 11.9531 5.92188 12.2812 5.6875L13.5 4.75H5.25C3.14062 4.75 1.5 6.4375 1.5 8.5C1.5 10.6094 3.14062 12.25 5.25 12.25H18.75C21.6094 12.25 24 14.6406 24 17.5C24 20.1719 21.9844 22.4219 19.4062 22.75C19.0781 24.0625 17.9062 25 16.5 25C14.8125 25 13.5 23.6875 13.5 22C13.5 20.3594 14.8125 19 16.5 19C17.8594 19 19.0312 19.9375 19.3594 21.2031C21.1406 20.9219 22.5 19.375 22.5 17.5C22.5 15.4375 20.8125 13.75 18.75 13.75H5.25C2.34375 13.75 0 11.4062 0 8.5C0 5.64062 2.34375 3.25 5.25 3.25H13.5L12.2812 2.35938C11.9531 2.125 11.8594 1.65625 12.1406 1.32812C12.375 1 12.8438 0.90625 13.1719 1.1875ZM16.4531 23.5C17.2969 23.5469 17.9531 22.8438 17.9531 22.0469C17.9531 21.2031 17.2969 20.5469 16.5 20.5C15.6562 20.5 14.9531 21.2031 14.9531 22C14.9531 22.8438 15.6562 23.5 16.4531 23.5ZM21 2.5C20.1562 2.5 19.5 3.20312 19.5 4C19.5 4.84375 20.1562 5.5 21 5.5C21.7969 5.5 22.5 4.84375 22.5 4C22.5 3.20312 21.7969 2.5 21 2.5ZM21 7C19.9219 7 18.9375 6.4375 18.375 5.5C17.8594 4.60938 17.8594 3.4375 18.375 2.5C18.9375 1.60938 19.9219 1 21 1C22.0312 1 23.0156 1.60938 23.5781 2.5C24.0938 3.4375 24.0938 4.60938 23.5781 5.5C23.0156 6.4375 22.0312 7 21 7ZM5.90625 21.25H9L7.78125 20.3594C7.45312 20.125 7.35938 19.6562 7.64062 19.3281C7.875 19 8.34375 18.9062 8.67188 19.1875L11.6719 21.4375C11.8594 21.5781 12 21.7656 12 22C12 22.2344 11.8594 22.4688 11.6719 22.6094L8.67188 24.8594C8.34375 25.1406 7.875 25.0469 7.64062 24.7188C7.35938 24.3906 7.45312 23.9219 7.78125 23.6875L9 22.75H5.90625C5.53125 24.0625 4.35938 25 3 25C1.3125 25 0 23.6875 0 22C0 20.3594 1.3125 19 3 19C4.35938 19 5.53125 19.9844 5.90625 21.25ZM1.5 22C1.5 22.8438 2.15625 23.5 3 23.5C3.79688 23.5 4.5 22.8438 4.5 22C4.5 21.2031 3.79688 20.5 3 20.5C2.15625 20.5 1.5 21.2031 1.5 22Z" fill="#EC1A3B"/>
</svg>
