<svg width="24" height="22" viewBox="0 0 24 22" fill="none" xmlns="http://www.w3.org/2000/svg">
<path d="M1.5 1.25V17.75C1.5 19.0156 2.48438 20 3.75 20H23.25C23.625 20 24 20.375 24 20.75C24 21.1719 23.625 21.5 23.25 21.5H3.75C1.64062 21.5 0 19.8594 0 17.75V1.25C0 0.875 0.328125 0.5 0.75 0.5C1.125 0.5 1.5 0.875 1.5 1.25ZM15 5.75C15 5.375 15.3281 5 15.75 5H21.75C22.125 5 22.5 5.375 22.5 5.75V11.75C22.5 12.1719 22.125 12.5 21.75 12.5C21.3281 12.5 21 12.1719 21 11.75V7.57812L15.5156 13.0625C15.2344 13.3438 14.7188 13.3438 14.4375 13.0625L10.5 9.07812L5.76562 13.8125C5.48438 14.0938 4.96875 14.0938 4.6875 13.8125C4.40625 13.5312 4.40625 13.0156 4.6875 12.7344L9.9375 7.48438C10.2188 7.20312 10.7344 7.20312 11.0156 7.48438L15 11.4688L19.9219 6.5H15.75C15.3281 6.5 15 6.17188 15 5.75Z" fill="#EC1A3B"/>
</svg>
