<svg width="30" height="19" viewBox="0 0 30 19" fill="none" xmlns="http://www.w3.org/2000/svg">
<path d="M12.3281 0H12.75L11.1094 1.6875C10.3125 1.875 9.60938 2.25 8.95312 2.76562L7.07812 4.35938C6.98438 4.45312 6.84375 4.5 6.75 4.5V2.67188L8.01562 1.59375C9.23438 0.5625 10.7812 0 12.3281 0ZM5.25 13.5469V14.25C5.25 15.5156 4.21875 16.5 3 16.5H2.25C0.984375 16.5 0 15.5156 0 14.25V4.5C0 3.70312 0.65625 3 1.5 3H3.75H5.25V4.5V12.0469C6.04688 12.0938 6.79688 12.4219 7.40625 13.0312L8.71875 14.3438L10.5938 16.2188C11.2031 16.8281 12.1875 16.875 12.8438 16.2656C12.9844 16.1719 13.125 15.9844 13.2188 15.8438C13.3125 15.6094 13.5469 15.4688 13.7812 15.4219C14.0156 15.375 14.25 15.4688 14.3906 15.6562L14.7656 16.0312C15.375 16.6406 16.4062 16.5938 16.9688 15.9375C17.25 15.6562 17.3906 15.2812 17.3438 14.9062C17.3438 14.625 17.4844 14.3438 17.7188 14.2031C18 14.0625 18.2812 14.0625 18.5156 14.2031C19.0781 14.5781 19.8281 14.5312 20.3438 14.0625C20.9531 13.5 21 12.5156 20.3906 11.9062L16.3125 7.82812L14.25 9.75C13.0781 10.875 11.25 10.875 10.0312 9.79688C8.67188 8.57812 8.625 6.42188 9.9375 5.15625L13.6875 1.64062C14.8125 0.609375 16.2656 0 17.8125 0C19.2188 0 20.5781 0.515625 21.6562 1.45312L23.2031 2.71875V4.5C23.0625 4.5 22.9219 4.45312 22.8281 4.35938L20.7188 2.57812C19.9219 1.875 18.8906 1.5 17.8125 1.5C16.6406 1.5 15.5625 1.96875 14.7188 2.76562L10.9688 6.28125C10.3125 6.9375 10.3125 8.0625 11.0156 8.67188C11.6719 9.23438 12.6094 9.23438 13.2188 8.67188L16.7812 5.39062C17.1094 5.10938 17.5781 5.10938 17.8594 5.4375C18.1406 5.71875 18.1406 6.1875 17.8125 6.46875L17.4375 6.84375L21.4688 10.8281C21.7969 11.1562 22.0312 11.5781 22.1719 11.9531H24.75V4.5V3H26.25H28.5C29.2969 3 30 3.70312 30 4.5V14.25C30 15.5156 28.9688 16.5 27.75 16.5H27C25.7344 16.5 24.75 15.5156 24.75 14.25V13.4531H22.2656C22.1719 14.1094 21.8438 14.7188 21.3281 15.1875C20.5781 15.8438 19.5938 16.0781 18.7031 15.8906C18.5625 16.2656 18.375 16.6406 18.0938 16.9688C17.0156 18.1875 15.1875 18.2812 13.9688 17.2969C13.9219 17.3438 13.875 17.3438 13.8281 17.3906C12.6094 18.5156 10.7344 18.4688 9.5625 17.2969L8.39062 16.125L7.6875 15.4219L6.32812 14.0625C6.04688 13.7812 5.625 13.5938 5.25 13.5469ZM3.75 4.5H1.5V14.25C1.5 14.6719 1.82812 15 2.25 15H3C3.375 15 3.75 14.6719 3.75 14.25V4.5ZM28.5 4.5H26.25V14.25C26.25 14.6719 26.5781 15 27 15H27.75C28.125 15 28.5 14.6719 28.5 14.25V4.5Z" fill="#009CC2"/>
</svg>
