<svg width="24" height="24" viewBox="0 0 24 24" fill="none" xmlns="http://www.w3.org/2000/svg">
<path d="M8.25 0.75V3H11.25V0.75C11.25 0.375 11.5781 0 12 0C12.375 0 12.75 0.375 12.75 0.75V3H15.75V0.75C15.75 0.375 16.0781 0 16.5 0C16.875 0 17.25 0.375 17.25 0.75V3H18C19.6406 3 21 4.35938 21 6V6.75H23.25C23.625 6.75 24 7.125 24 7.5C24 7.92188 23.625 8.25 23.25 8.25H21V11.25H23.25C23.625 11.25 24 11.625 24 12C24 12.4219 23.625 12.75 23.25 12.75H21V15.75H23.25C23.625 15.75 24 16.125 24 16.5C24 16.9219 23.625 17.25 23.25 17.25H21V18C21 19.6875 19.6406 21 18 21H17.25V23.25C17.25 23.6719 16.875 24 16.5 24C16.0781 24 15.75 23.6719 15.75 23.25V21H12.75V23.25C12.75 23.6719 12.375 24 12 24C11.5781 24 11.25 23.6719 11.25 23.25V21H8.25V23.25C8.25 23.6719 7.875 24 7.5 24C7.07812 24 6.75 23.6719 6.75 23.25V21H6C4.3125 21 3 19.6875 3 18V17.25H0.75C0.328125 17.25 0 16.9219 0 16.5C0 16.125 0.328125 15.75 0.75 15.75H3V12.75H0.75C0.328125 12.75 0 12.4219 0 12C0 11.625 0.328125 11.25 0.75 11.25H3V8.25H0.75C0.328125 8.25 0 7.92188 0 7.5C0 7.125 0.328125 6.75 0.75 6.75H3V6C3 4.35938 4.3125 3 6 3H6.75V0.75C6.75 0.375 7.07812 0 7.5 0C7.875 0 8.25 0.375 8.25 0.75ZM19.5 6C19.5 5.20312 18.7969 4.5 18 4.5H6C5.15625 4.5 4.5 5.20312 4.5 6V18C4.5 18.8438 5.15625 19.5 6 19.5H18C18.7969 19.5 19.5 18.8438 19.5 18V6ZM7.5 6H16.5C17.2969 6 18 6.70312 18 7.5V16.5C18 17.3438 17.2969 18 16.5 18H7.5C6.65625 18 6 17.3438 6 16.5V7.5C6 6.70312 6.65625 6 7.5 6ZM16.5 7.5H7.5V16.5H16.5V7.5Z" fill="#EC1A3B"/>
</svg>
