<svg width="24" height="24" viewBox="0 0 24 24" fill="none" xmlns="http://www.w3.org/2000/svg">
<path d="M0 12C0 11.625 0.328125 11.25 0.75 11.25H23.25C23.625 11.25 24 11.625 24 12C24 12.4219 23.625 12.75 23.25 12.75H0.75C0.328125 12.75 0 12.4219 0 12ZM18 22.5L12 16.5L6 22.5H18ZM6 24C5.39062 24 4.82812 23.6719 4.59375 23.1094C4.35938 22.5469 4.5 21.8906 4.92188 21.4688L10.9219 15.4688C11.4844 14.8594 12.4688 14.8594 13.0312 15.4688L19.0312 21.4688C19.4531 21.8906 19.5938 22.5469 19.3594 23.1094C19.125 23.6719 18.5625 24 17.9531 24H5.95312H6ZM6 1.5L12 7.5L18 1.5H6ZM4.59375 0.9375C4.82812 0.375 5.39062 0 6 0H18C18.5625 0 19.125 0.375 19.3594 0.9375C19.5938 1.5 19.4531 2.15625 19.0312 2.57812L13.0312 8.57812C12.4688 9.1875 11.4844 9.1875 10.9219 8.57812L4.92188 2.57812C4.5 2.15625 4.35938 1.5 4.59375 0.9375Z" fill="#EC1A3B"/>
</svg>
