<svg width="21" height="25" viewBox="0 0 21 25" fill="none" xmlns="http://www.w3.org/2000/svg">
<path d="M10.5 2.5C8.85938 2.5 7.40625 3.39062 6.5625 4.75C5.76562 6.15625 5.76562 7.89062 6.5625 9.25C7.40625 10.6562 8.85938 11.5 10.5 11.5C12.0938 11.5 13.5469 10.6562 14.3906 9.25C15.1875 7.89062 15.1875 6.15625 14.3906 4.75C13.5469 3.39062 12.0938 2.5 10.5 2.5ZM4.5 7C4.5 4.89062 5.625 2.92188 7.5 1.84375C9.32812 0.765625 11.625 0.765625 13.5 1.84375C15.3281 2.92188 16.5 4.89062 16.5 7C16.5 9.15625 15.3281 11.125 13.5 12.2031C11.625 13.2812 9.32812 13.2812 7.5 12.2031C5.625 11.125 4.5 9.15625 4.5 7ZM9 15.25H10.5H12C12.375 15.25 12.75 15.625 12.75 16C12.75 16.4219 12.375 16.75 12 16.75H11.5312L12.5156 19.7969L14.0156 16.5625C14.1562 16.2812 14.4844 16.0938 14.8125 16.1406C18.3281 16.7969 21 19.8906 21 23.5938C21 24.3906 20.3438 25 19.5469 25H1.40625C0.609375 25 0 24.3906 0 23.5938C0 19.8906 2.625 16.7969 6.14062 16.1406C6.46875 16.0938 6.79688 16.2812 6.9375 16.5625L8.4375 19.7969L9.42188 16.75H9C8.57812 16.75 8.25 16.4219 8.25 16C8.25 15.625 8.57812 15.25 9 15.25ZM9.79688 22.7969C10.0781 23.3594 10.875 23.3594 11.1562 22.7969L11.625 21.8125L10.5 18.3906L9.32812 21.8125L9.79688 22.7969ZM8.4375 23.4062L5.8125 17.7812C3.32812 18.4844 1.5 20.7812 1.5 23.5H8.48438C8.48438 23.5 8.4375 23.4531 8.4375 23.4062ZM19.5 23.5C19.4531 20.7812 17.625 18.4844 15.1406 17.7812L12.5156 23.4062C12.5156 23.4531 12.4688 23.5 12.4688 23.5H19.5Z" fill="#009CC2"/>
</svg>
