<svg width="49" height="50" viewBox="0 0 49 50" fill="none" xmlns="http://www.w3.org/2000/svg">
<path d="M26.3438 1.375L32.3438 5.875C32.7188 6.15625 33 6.53125 33 7C33 7.46875 32.7188 7.9375 32.3438 8.21875L26.3438 12.7188C25.6875 13.2812 24.75 13.0938 24.2813 12.4375C23.7188 11.7812 23.9063 10.8438 24.5625 10.375L27 8.5H10.5C6.28128 8.5 3.00003 11.875 3.00003 16C3.00003 20.2188 6.28128 23.5 10.5 23.5H37.5C43.2188 23.5 48 28.2812 48 34C48 39.3438 43.9688 43.8438 38.8125 44.5C38.1563 47.125 35.8125 49 33 49C29.625 49 27 46.375 27 43C27 39.7188 29.625 37 33 37C35.7188 37 38.0625 38.875 38.7188 41.4062C42.2813 40.8438 45 37.75 45 34C45 29.875 41.625 26.5 37.5 26.5H10.5C4.68753 26.5 3.05176e-05 21.8125 3.05176e-05 16C3.05176e-05 10.2812 4.68753 5.5 10.5 5.5H27L24.5625 3.71875C23.9063 3.25 23.7188 2.3125 24.2813 1.65625C24.75 1 25.6875 0.8125 26.3438 1.375ZM32.9063 46C34.5938 46.0938 35.9063 44.6875 35.9063 43.0938C35.9063 41.4062 34.5938 40.0938 33 40C31.3125 40 29.9063 41.4062 29.9063 43C29.9063 44.6875 31.3125 46 32.9063 46ZM42 4C40.3125 4 39 5.40625 39 7C39 8.6875 40.3125 10 42 10C43.5938 10 45 8.6875 45 7C45 5.40625 43.5938 4 42 4ZM42 13C39.8438 13 37.875 11.875 36.75 10C35.7188 8.21875 35.7188 5.875 36.75 4C37.875 2.21875 39.8438 1 42 1C44.0625 1 46.0313 2.21875 47.1563 4C48.1875 5.875 48.1875 8.21875 47.1563 10C46.0313 11.875 44.0625 13 42 13ZM11.8125 41.5H18L15.5625 39.7188C14.9063 39.25 14.7188 38.3125 15.2813 37.6562C15.75 37 16.6875 36.8125 17.3438 37.375L23.3438 41.875C23.7188 42.1562 24 42.5312 24 43C24 43.4688 23.7188 43.9375 23.3438 44.2188L17.3438 48.7188C16.6875 49.2812 15.75 49.0938 15.2813 48.4375C14.7188 47.7812 14.9063 46.8438 15.5625 46.375L18 44.5H11.8125C11.0625 47.125 8.71878 49 6.00003 49C2.62503 49 3.05176e-05 46.375 3.05176e-05 43C3.05176e-05 39.7188 2.62503 37 6.00003 37C8.71878 37 11.0625 38.9688 11.8125 41.5ZM3.00003 43C3.00003 44.6875 4.31253 46 6.00003 46C7.59378 46 9.00003 44.6875 9.00003 43C9.00003 41.4062 7.59378 40 6.00003 40C4.31253 40 3.00003 41.4062 3.00003 43Z" fill="#EC1A3B"/>
</svg>
