<svg width="14" height="14" viewBox="0 0 14 14" fill="none" xmlns="http://www.w3.org/2000/svg">
<path d="M10.586 6.15741L6.636 2.20741C6.45384 2.0188 6.35305 1.7662 6.35533 1.50401C6.3576 1.24181 6.46277 0.990997 6.64818 0.805589C6.83359 0.62018 7.0844 0.515012 7.3466 0.512733C7.6088 0.510455 7.8614 0.611249 8.05 0.793407L13.707 6.45041C13.8002 6.54306 13.8741 6.65322 13.9246 6.77455C13.9751 6.89589 14.001 7.026 14.001 7.15741C14.001 7.28882 13.9751 7.41893 13.9246 7.54026C13.8741 7.66159 13.8002 7.77175 13.707 7.86441L8.05 13.5214C7.95775 13.6169 7.84741 13.6931 7.7254 13.7455C7.6034 13.7979 7.47218 13.8255 7.3394 13.8267C7.20662 13.8278 7.07494 13.8025 6.95205 13.7522C6.82915 13.7019 6.7175 13.6277 6.62361 13.5338C6.52971 13.4399 6.45546 13.3283 6.40518 13.2054C6.3549 13.0825 6.3296 12.9508 6.33075 12.818C6.3319 12.6852 6.35949 12.554 6.4119 12.432C6.46431 12.31 6.54049 12.1997 6.636 12.1074L10.586 8.15741H1C0.734784 8.15741 0.48043 8.05205 0.292893 7.86451C0.105357 7.67698 0 7.42262 0 7.15741C0 6.89219 0.105357 6.63784 0.292893 6.4503C0.48043 6.26276 0.734784 6.15741 1 6.15741H10.586Z" fill="#2F80ED"/>
</svg>
